<mxfile host="app.diagrams.net" modified="2022-08-26T10:52:07.787Z" agent="5.0 (Macintosh; Intel Mac OS X 10_15_7) AppleWebKit/537.36 (KHTML, like Gecko) Chrome/104.0.0.0 Safari/537.36" etag="ModkBwthxnszU8LEAVbE" version="20.2.6" type="github">
  <diagram id="X51VYddWkbkuNtYHMd4o" name="第 1 页">
    <mxGraphModel dx="1426" dy="680" grid="1" gridSize="10" guides="1" tooltips="1" connect="1" arrows="1" fold="1" page="1" pageScale="1" pageWidth="827" pageHeight="1169" math="0" shadow="0">
      <root>
        <mxCell id="0" />
        <mxCell id="1" parent="0" />
        <mxCell id="QnG45yh_9Llj5AD3C7vI-2" style="edgeStyle=orthogonalEdgeStyle;rounded=0;orthogonalLoop=1;jettySize=auto;html=1;fontSize=24;fontColor=#000000;strokeColor=#3399FF;entryX=0.5;entryY=0;entryDx=0;entryDy=0;" edge="1" parent="1" source="QnG45yh_9Llj5AD3C7vI-1" target="QnG45yh_9Llj5AD3C7vI-4">
          <mxGeometry relative="1" as="geometry">
            <mxPoint x="552" y="230" as="targetPoint" />
          </mxGeometry>
        </mxCell>
        <mxCell id="QnG45yh_9Llj5AD3C7vI-1" value="&lt;font style=&quot;font-size: 24px;&quot;&gt;开始&lt;/font&gt;" style="rounded=1;whiteSpace=wrap;html=1;strokeColor=#97D077;" vertex="1" parent="1">
          <mxGeometry x="494" y="110" width="116" height="50" as="geometry" />
        </mxCell>
        <mxCell id="QnG45yh_9Llj5AD3C7vI-5" style="edgeStyle=orthogonalEdgeStyle;rounded=0;orthogonalLoop=1;jettySize=auto;html=1;fontSize=24;fontColor=#000000;strokeColor=#3399FF;" edge="1" parent="1" source="QnG45yh_9Llj5AD3C7vI-4" target="QnG45yh_9Llj5AD3C7vI-6">
          <mxGeometry relative="1" as="geometry">
            <mxPoint x="552" y="360" as="targetPoint" />
          </mxGeometry>
        </mxCell>
        <mxCell id="QnG45yh_9Llj5AD3C7vI-4" value="调用insert()添加消息" style="rounded=0;whiteSpace=wrap;html=1;fontSize=24;fontColor=#000000;strokeColor=#97D077;" vertex="1" parent="1">
          <mxGeometry x="478" y="220" width="148" height="70" as="geometry" />
        </mxCell>
        <mxCell id="QnG45yh_9Llj5AD3C7vI-6" value="List" style="swimlane;fontStyle=0;childLayout=stackLayout;horizontal=1;startSize=30;horizontalStack=0;resizeParent=1;resizeParentMax=0;resizeLast=0;collapsible=1;marginBottom=0;fontSize=24;fontColor=#000000;strokeColor=#97D077;" vertex="1" parent="1">
          <mxGeometry x="482" y="415" width="140" height="60" as="geometry" />
        </mxCell>
        <mxCell id="QnG45yh_9Llj5AD3C7vI-7" value="news 1" style="text;strokeColor=none;fillColor=none;align=left;verticalAlign=middle;spacingLeft=4;spacingRight=4;overflow=hidden;points=[[0,0.5],[1,0.5]];portConstraint=eastwest;rotatable=0;fontSize=24;fontColor=#000000;" vertex="1" parent="QnG45yh_9Llj5AD3C7vI-6">
          <mxGeometry y="30" width="140" height="30" as="geometry" />
        </mxCell>
        <mxCell id="QnG45yh_9Llj5AD3C7vI-13" style="edgeStyle=orthogonalEdgeStyle;rounded=0;orthogonalLoop=1;jettySize=auto;html=1;fontSize=24;fontColor=#000000;strokeColor=#3399FF;" edge="1" parent="1" source="QnG45yh_9Llj5AD3C7vI-10" target="QnG45yh_9Llj5AD3C7vI-11">
          <mxGeometry relative="1" as="geometry" />
        </mxCell>
        <mxCell id="QnG45yh_9Llj5AD3C7vI-10" value="spring定时任务" style="rounded=0;whiteSpace=wrap;html=1;fontSize=24;fontColor=#000000;strokeColor=#97D077;" vertex="1" parent="1">
          <mxGeometry x="210" y="110" width="120" height="60" as="geometry" />
        </mxCell>
        <mxCell id="QnG45yh_9Llj5AD3C7vI-12" style="edgeStyle=orthogonalEdgeStyle;rounded=0;orthogonalLoop=1;jettySize=auto;html=1;fontSize=24;fontColor=#000000;strokeColor=#3399FF;" edge="1" parent="1" source="QnG45yh_9Llj5AD3C7vI-11" target="QnG45yh_9Llj5AD3C7vI-15">
          <mxGeometry relative="1" as="geometry">
            <mxPoint x="270" y="360" as="targetPoint" />
          </mxGeometry>
        </mxCell>
        <mxCell id="QnG45yh_9Llj5AD3C7vI-11" value="根据cron表达式调用sendNewsTask()" style="rounded=0;whiteSpace=wrap;html=1;fontSize=24;fontColor=#000000;strokeColor=#97D077;" vertex="1" parent="1">
          <mxGeometry x="160" y="220" width="220" height="90" as="geometry" />
        </mxCell>
        <mxCell id="QnG45yh_9Llj5AD3C7vI-16" style="edgeStyle=orthogonalEdgeStyle;rounded=0;orthogonalLoop=1;jettySize=auto;html=1;entryX=0.043;entryY=-0.133;entryDx=0;entryDy=0;entryPerimeter=0;fontSize=24;fontColor=#000000;strokeColor=#3399FF;" edge="1" parent="1" source="QnG45yh_9Llj5AD3C7vI-15" target="QnG45yh_9Llj5AD3C7vI-7">
          <mxGeometry relative="1" as="geometry" />
        </mxCell>
        <mxCell id="QnG45yh_9Llj5AD3C7vI-17" value="遍历" style="edgeLabel;html=1;align=center;verticalAlign=middle;resizable=0;points=[];fontSize=24;fontColor=#000000;" vertex="1" connectable="0" parent="QnG45yh_9Llj5AD3C7vI-16">
          <mxGeometry x="-0.2812" y="-2" relative="1" as="geometry">
            <mxPoint x="15" y="-2" as="offset" />
          </mxGeometry>
        </mxCell>
        <mxCell id="QnG45yh_9Llj5AD3C7vI-18" style="edgeStyle=orthogonalEdgeStyle;rounded=0;orthogonalLoop=1;jettySize=auto;html=1;fontSize=24;fontColor=#000000;strokeColor=#3399FF;" edge="1" parent="1" source="QnG45yh_9Llj5AD3C7vI-15" target="QnG45yh_9Llj5AD3C7vI-20">
          <mxGeometry relative="1" as="geometry">
            <mxPoint x="270" y="630" as="targetPoint" />
          </mxGeometry>
        </mxCell>
        <mxCell id="QnG45yh_9Llj5AD3C7vI-19" value="是" style="edgeLabel;html=1;align=center;verticalAlign=middle;resizable=0;points=[];fontSize=24;fontColor=#000000;" vertex="1" connectable="0" parent="QnG45yh_9Llj5AD3C7vI-18">
          <mxGeometry x="-0.28" y="-3" relative="1" as="geometry">
            <mxPoint as="offset" />
          </mxGeometry>
        </mxCell>
        <mxCell id="QnG45yh_9Llj5AD3C7vI-32" style="edgeStyle=orthogonalEdgeStyle;rounded=0;orthogonalLoop=1;jettySize=auto;html=1;fontSize=24;fontColor=#000000;strokeColor=#3399FF;" edge="1" parent="1" source="QnG45yh_9Llj5AD3C7vI-15" target="QnG45yh_9Llj5AD3C7vI-31">
          <mxGeometry relative="1" as="geometry">
            <Array as="points">
              <mxPoint x="100" y="445" />
              <mxPoint x="100" y="1070" />
              <mxPoint x="554" y="1070" />
            </Array>
          </mxGeometry>
        </mxCell>
        <mxCell id="QnG45yh_9Llj5AD3C7vI-33" value="否" style="edgeLabel;html=1;align=center;verticalAlign=middle;resizable=0;points=[];fontSize=24;fontColor=#000000;" vertex="1" connectable="0" parent="QnG45yh_9Llj5AD3C7vI-32">
          <mxGeometry x="-0.3751" y="-1" relative="1" as="geometry">
            <mxPoint y="1" as="offset" />
          </mxGeometry>
        </mxCell>
        <mxCell id="QnG45yh_9Llj5AD3C7vI-15" value="遍历消息列表，&lt;br&gt;判断是否有消息&lt;br&gt;需要发布" style="rhombus;whiteSpace=wrap;html=1;fontSize=24;fontColor=#000000;strokeColor=#97D077;" vertex="1" parent="1">
          <mxGeometry x="167.5" y="360" width="205" height="170" as="geometry" />
        </mxCell>
        <mxCell id="QnG45yh_9Llj5AD3C7vI-22" style="edgeStyle=orthogonalEdgeStyle;rounded=0;orthogonalLoop=1;jettySize=auto;html=1;entryX=0;entryY=0.5;entryDx=0;entryDy=0;entryPerimeter=0;fontSize=24;fontColor=#000000;strokeColor=#3399FF;" edge="1" parent="1" source="QnG45yh_9Llj5AD3C7vI-20" target="QnG45yh_9Llj5AD3C7vI-21">
          <mxGeometry relative="1" as="geometry" />
        </mxCell>
        <mxCell id="QnG45yh_9Llj5AD3C7vI-23" value="添加" style="edgeLabel;html=1;align=center;verticalAlign=middle;resizable=0;points=[];fontSize=24;fontColor=#000000;" vertex="1" connectable="0" parent="QnG45yh_9Llj5AD3C7vI-22">
          <mxGeometry x="0.082" y="-3" relative="1" as="geometry">
            <mxPoint as="offset" />
          </mxGeometry>
        </mxCell>
        <mxCell id="QnG45yh_9Llj5AD3C7vI-41" style="edgeStyle=orthogonalEdgeStyle;rounded=0;orthogonalLoop=1;jettySize=auto;html=1;fontSize=24;fontColor=#000000;strokeColor=#3399FF;" edge="1" parent="1" source="QnG45yh_9Llj5AD3C7vI-20" target="QnG45yh_9Llj5AD3C7vI-42">
          <mxGeometry relative="1" as="geometry">
            <mxPoint x="270" y="730" as="targetPoint" />
          </mxGeometry>
        </mxCell>
        <mxCell id="QnG45yh_9Llj5AD3C7vI-20" value="调用&lt;br&gt;sendNews()" style="rounded=0;whiteSpace=wrap;html=1;fontSize=24;fontColor=#000000;strokeColor=#97D077;" vertex="1" parent="1">
          <mxGeometry x="192.5" y="595" width="155" height="70" as="geometry" />
        </mxCell>
        <mxCell id="QnG45yh_9Llj5AD3C7vI-21" value="RabbitMQ" style="shape=cylinder3;whiteSpace=wrap;html=1;boundedLbl=1;backgroundOutline=1;size=15;fontSize=24;fontColor=#000000;strokeColor=#97D077;" vertex="1" parent="1">
          <mxGeometry x="500" y="585" width="126" height="90" as="geometry" />
        </mxCell>
        <mxCell id="QnG45yh_9Llj5AD3C7vI-25" style="edgeStyle=orthogonalEdgeStyle;rounded=0;orthogonalLoop=1;jettySize=auto;html=1;fontSize=24;fontColor=#000000;strokeColor=#3399FF;" edge="1" parent="1" source="QnG45yh_9Llj5AD3C7vI-24" target="QnG45yh_9Llj5AD3C7vI-21">
          <mxGeometry relative="1" as="geometry" />
        </mxCell>
        <mxCell id="QnG45yh_9Llj5AD3C7vI-26" value="监控" style="edgeLabel;html=1;align=center;verticalAlign=middle;resizable=0;points=[];fontSize=24;fontColor=#000000;" vertex="1" connectable="0" parent="QnG45yh_9Llj5AD3C7vI-25">
          <mxGeometry x="-0.129" y="1" relative="1" as="geometry">
            <mxPoint as="offset" />
          </mxGeometry>
        </mxCell>
        <mxCell id="QnG45yh_9Llj5AD3C7vI-27" style="edgeStyle=orthogonalEdgeStyle;rounded=0;orthogonalLoop=1;jettySize=auto;html=1;fontSize=24;fontColor=#000000;strokeColor=#3399FF;" edge="1" parent="1" source="QnG45yh_9Llj5AD3C7vI-24" target="QnG45yh_9Llj5AD3C7vI-28">
          <mxGeometry relative="1" as="geometry">
            <mxPoint x="810" y="725" as="targetPoint" />
          </mxGeometry>
        </mxCell>
        <mxCell id="QnG45yh_9Llj5AD3C7vI-24" value="RabbitMQ消费端" style="rounded=0;whiteSpace=wrap;html=1;fontSize=24;fontColor=#000000;strokeColor=#97D077;" vertex="1" parent="1">
          <mxGeometry x="750" y="600" width="120" height="60" as="geometry" />
        </mxCell>
        <mxCell id="QnG45yh_9Llj5AD3C7vI-35" style="edgeStyle=orthogonalEdgeStyle;rounded=0;orthogonalLoop=1;jettySize=auto;html=1;fontSize=24;fontColor=#000000;strokeColor=#3399FF;" edge="1" parent="1" source="QnG45yh_9Llj5AD3C7vI-28" target="QnG45yh_9Llj5AD3C7vI-36">
          <mxGeometry relative="1" as="geometry">
            <mxPoint x="660" y="810" as="targetPoint" />
          </mxGeometry>
        </mxCell>
        <mxCell id="QnG45yh_9Llj5AD3C7vI-28" value="通过不同的监听器，调用发送邮件方法或站内信方法" style="rounded=0;whiteSpace=wrap;html=1;fontSize=24;fontColor=#000000;strokeColor=#97D077;" vertex="1" parent="1">
          <mxGeometry x="730" y="735" width="160" height="150" as="geometry" />
        </mxCell>
        <mxCell id="QnG45yh_9Llj5AD3C7vI-31" value="结束" style="rounded=1;whiteSpace=wrap;html=1;fontSize=24;fontColor=#000000;strokeColor=#97D077;" vertex="1" parent="1">
          <mxGeometry x="494" y="1129" width="120" height="40" as="geometry" />
        </mxCell>
        <mxCell id="QnG45yh_9Llj5AD3C7vI-39" style="edgeStyle=orthogonalEdgeStyle;rounded=0;orthogonalLoop=1;jettySize=auto;html=1;exitX=0.5;exitY=0;exitDx=0;exitDy=0;entryX=0.5;entryY=0;entryDx=0;entryDy=0;fontSize=24;fontColor=#000000;strokeColor=#3399FF;" edge="1" parent="1" source="QnG45yh_9Llj5AD3C7vI-36" target="QnG45yh_9Llj5AD3C7vI-28">
          <mxGeometry relative="1" as="geometry">
            <Array as="points">
              <mxPoint x="554" y="700" />
              <mxPoint x="810" y="700" />
            </Array>
          </mxGeometry>
        </mxCell>
        <mxCell id="QnG45yh_9Llj5AD3C7vI-40" value="否" style="edgeLabel;html=1;align=center;verticalAlign=middle;resizable=0;points=[];fontSize=24;fontColor=#000000;" vertex="1" connectable="0" parent="QnG45yh_9Llj5AD3C7vI-39">
          <mxGeometry x="-0.0655" y="3" relative="1" as="geometry">
            <mxPoint as="offset" />
          </mxGeometry>
        </mxCell>
        <mxCell id="QnG45yh_9Llj5AD3C7vI-47" style="edgeStyle=orthogonalEdgeStyle;rounded=0;orthogonalLoop=1;jettySize=auto;html=1;fontSize=24;fontColor=#000000;strokeColor=#3399FF;" edge="1" parent="1" source="QnG45yh_9Llj5AD3C7vI-36" target="QnG45yh_9Llj5AD3C7vI-31">
          <mxGeometry relative="1" as="geometry" />
        </mxCell>
        <mxCell id="QnG45yh_9Llj5AD3C7vI-48" value="是" style="edgeLabel;html=1;align=center;verticalAlign=middle;resizable=0;points=[];fontSize=24;fontColor=#000000;" vertex="1" connectable="0" parent="QnG45yh_9Llj5AD3C7vI-47">
          <mxGeometry x="-0.3383" y="-1" relative="1" as="geometry">
            <mxPoint as="offset" />
          </mxGeometry>
        </mxCell>
        <mxCell id="QnG45yh_9Llj5AD3C7vI-36" value="是否&lt;br&gt;消费完成" style="rhombus;whiteSpace=wrap;html=1;fontSize=24;fontColor=#000000;strokeColor=#97D077;" vertex="1" parent="1">
          <mxGeometry x="490" y="760" width="128" height="100" as="geometry" />
        </mxCell>
        <mxCell id="QnG45yh_9Llj5AD3C7vI-46" style="edgeStyle=orthogonalEdgeStyle;rounded=0;orthogonalLoop=1;jettySize=auto;html=1;fontSize=24;fontColor=#000000;strokeColor=#3399FF;" edge="1" parent="1" source="QnG45yh_9Llj5AD3C7vI-42" target="QnG45yh_9Llj5AD3C7vI-44">
          <mxGeometry relative="1" as="geometry" />
        </mxCell>
        <mxCell id="QnG45yh_9Llj5AD3C7vI-50" value="是" style="edgeLabel;html=1;align=center;verticalAlign=middle;resizable=0;points=[];fontSize=24;fontColor=#000000;" vertex="1" connectable="0" parent="QnG45yh_9Llj5AD3C7vI-46">
          <mxGeometry x="-0.3333" y="-3" relative="1" as="geometry">
            <mxPoint x="3" y="10" as="offset" />
          </mxGeometry>
        </mxCell>
        <mxCell id="QnG45yh_9Llj5AD3C7vI-51" style="edgeStyle=orthogonalEdgeStyle;rounded=0;orthogonalLoop=1;jettySize=auto;html=1;entryX=0;entryY=0.5;entryDx=0;entryDy=0;fontSize=24;fontColor=#000000;strokeColor=#3399FF;" edge="1" parent="1" source="QnG45yh_9Llj5AD3C7vI-42" target="QnG45yh_9Llj5AD3C7vI-20">
          <mxGeometry relative="1" as="geometry">
            <Array as="points">
              <mxPoint x="150" y="790" />
              <mxPoint x="150" y="630" />
            </Array>
          </mxGeometry>
        </mxCell>
        <mxCell id="QnG45yh_9Llj5AD3C7vI-52" value="否" style="edgeLabel;html=1;align=center;verticalAlign=middle;resizable=0;points=[];fontSize=24;fontColor=#000000;" vertex="1" connectable="0" parent="QnG45yh_9Llj5AD3C7vI-51">
          <mxGeometry x="-0.0653" relative="1" as="geometry">
            <mxPoint y="1" as="offset" />
          </mxGeometry>
        </mxCell>
        <mxCell id="QnG45yh_9Llj5AD3C7vI-42" value="是否遍历消息至RabbitMQ完成" style="rhombus;whiteSpace=wrap;html=1;fontSize=24;fontColor=#000000;strokeColor=#97D077;" vertex="1" parent="1">
          <mxGeometry x="176.25" y="735" width="187.5" height="120" as="geometry" />
        </mxCell>
        <mxCell id="QnG45yh_9Llj5AD3C7vI-49" style="edgeStyle=orthogonalEdgeStyle;rounded=0;orthogonalLoop=1;jettySize=auto;html=1;fontSize=24;fontColor=#000000;strokeColor=#3399FF;" edge="1" parent="1" source="QnG45yh_9Llj5AD3C7vI-44" target="QnG45yh_9Llj5AD3C7vI-31">
          <mxGeometry relative="1" as="geometry">
            <Array as="points">
              <mxPoint x="270" y="1070" />
              <mxPoint x="554" y="1070" />
            </Array>
          </mxGeometry>
        </mxCell>
        <mxCell id="QnG45yh_9Llj5AD3C7vI-44" value="修改news状态至“已发送”" style="rounded=0;whiteSpace=wrap;html=1;fontSize=24;fontColor=#000000;strokeColor=#97D077;" vertex="1" parent="1">
          <mxGeometry x="190" y="910" width="160" height="80" as="geometry" />
        </mxCell>
      </root>
    </mxGraphModel>
  </diagram>
</mxfile>
